<?xml version="1.0" encoding="UTF-8" standalone="no"?>
<!-- Created with Inkscape (http://www.inkscape.org/) -->

<svg
   version="1.0"
   width="600"
   height="199.41692"
   id="svg2424"
   xmlns="http://www.w3.org/2000/svg"
   xmlns:svg="http://www.w3.org/2000/svg">
  <defs
     id="defs2426">
    <rect
       x="222.45526"
       y="139.80063"
       width="300.46313"
       height="54.312794"
       id="rect970" />
  </defs>
  <g
     transform="translate(-34.777313,-129.80241)"
     id="layer1">
    <g
       transform="matrix(0.8746356,0,0,0.8746356,14.730518,23.408954)"
       id="g2424">
      <g
         transform="matrix(0.6378586,0,0,0.6378586,36.486487,2.17139)"
         id="g2809"
         style="fill:#ffffff;fill-opacity:1">
        <path
           d="m 339.96875,309.09375 c -14.47141,-0.0239 -26.4812,2.94367 -31.125,4.5625 l -4.78125,25.8125 c -0.0116,0.0951 23.79543,-6.34855 34.28125,-5.96875 17.36158,0.62381 18.95948,6.63541 18.65625,14.75 0.29595,0.47462 -4.47933,-7.33192 -19.5,-7.59375 -18.94961,-0.32687 -45.69284,6.70947 -45.65625,35.3125 -0.51086,32.17412 24.03361,41.63882 40.75,41.8125 15.02821,-0.27364 22.0777,-5.69136 25.9375,-8.59375 5.07124,-5.30236 10.87308,-10.63447 16.40625,-17.03125 -5.23567,9.51278 -9.77472,16.0898 -14.5,21.125 v 4.25 l 22.84375,-3.84375 0.15625,-62.09375 c -0.23141,-8.78839 5.04123,-42.41827 -43.46875,-42.5 z m -3.28125,54.0625 c 9.46889,0.12995 20.32788,4.79708 20.34375,16.03125 0.049,10.21821 -12.80005,15.71183 -21.15625,15.625 -8.35976,-0.0868 -19.45093,-6.56982 -19.5,-16.53125 0.16016,-8.90444 10.45953,-15.35418 20.3125,-15.125 z"
           id="path2284"
           style="fill:#ffffff;fill-opacity:1;fill-rule:evenodd;stroke:none" />
        <path
           d="m 398.50106,314.83145 -0.15505,102.82693 26.61213,-5.12724 0.0449,-58.30157 c 0.006,-8.68089 12.40554,-18.82451 27.9627,-18.66287 3.30202,-5.97408 9.5087,-21.24219 11.02088,-24.71514 -34.75649,-0.0833 -35.19897,9.98993 -41.24398,14.94517 -0.0631,-9.45285 -0.0213,-15.12741 -0.0213,-15.12741 l -24.2202,4.16213 z"
           id="path2286"
           style="fill:#ffffff;fill-opacity:1;fill-rule:evenodd;stroke:none" />
        <path
           d="m 548.2688,328.33058 c -0.25696,-0.12068 -13.87938,-15.93419 -41.26638,-16.0589 -25.65249,-0.42638 -54.42578,9.51895 -54.88631,52.5328 0.22457,37.81852 27.6402,52.59809 55.0314,52.88627 29.31292,0.30451 40.97654,-18.32947 41.67615,-18.79124 -3.49762,-3.0321 -16.59792,-16.0131 -16.59792,-16.0131 0,0 -8.18236,11.65102 -24.05802,11.79913 -15.87942,0.1512 -29.68245,-12.27325 -29.87805,-29.60905 -0.20349,-17.33595 12.68881,-26.72821 29.99725,-27.48687 14.98466,-0.003 23.6297,9.67334 23.6297,9.67334 z"
           id="path2288"
           style="fill:#ffffff;fill-opacity:1;fill-rule:evenodd;stroke:none" />
        <path
           d="m 581.8125,278.84375 -25.125,5.90625 0.1875,133.9375 24.75,-4.46875 0.28125,-63.03125 c 0.0529,-6.60927 9.56127,-16.75916 25.4375,-16.4375 15.17973,0.15775 18.57236,10.11767 18.53125,11.375 l 0.4375,72.96875 24.40625,-4.3125 0.0937,-77.375 c 0.1607,-7.44539 -16.30833,-23.16954 -42.78125,-23.28125 -12.58087,0.0202 -19.54815,2.86825 -23.09375,4.96875 -6.06656,4.68565 -12.9998,9.17543 -19.8125,14.90625 6.29809,-8.09099 11.58551,-13.68516 16.75,-17.84375 l -0.0625,-37.3125 z"
           id="path2290"
           style="fill:#ffffff;fill-opacity:1;fill-rule:evenodd;stroke:none" />
      </g>
      <g
         transform="matrix(0.9443373,0,0.01336345,0.9443373,78.345657,-412.48879)"
         id="g5326"
         style="fill:#ff6376;fill-opacity:1;stroke:none">
        <path
           d="m 400.67581,629.79609 7.68167,-1.91575 -0.92851,91.20792 -7.79574,1.32426 z"
           id="path2292"
           style="fill:#ff6376;fill-opacity:1;fill-rule:evenodd;stroke:none" />
        <path
           d="m 421.10266,657.01757 6.75064,-2.9867 -0.86808,65.39931 -6.49779,1.33915 z m -1.26059,-23.58316 5.47167,-4.41533 4.42261,4.99952 -5.47558,4.53221 z"
           id="path2294"
           style="fill:#ff6376;fill-opacity:1;fill-rule:evenodd;stroke:none" />
        <path
           d="m 440.44273,655.82614 7.67755,-1.56201 -0.1573,13.6722 c -0.007,0.58717 4.4194,-15.27364 24.68502,-14.92094 19.67986,0.10952 22.68401,15.34634 22.5291,18.76237 l -0.43759,48.0783 -6.73044,1.45631 0.63316,-47.489 c 0.0974,-1.38684 -2.88144,-13.11441 -16.78906,-13.15754 -13.90509,-0.0404 -23.68364,10.10048 -23.75821,16.57937 l -0.48127,41.83477 -7.80388,2.0313 z"
           id="path2296"
           style="fill:#ff6376;fill-opacity:1;fill-rule:evenodd;stroke:none" />
        <path
           d="m 561.53301,720.20203 -7.6776,1.56186 0.15737,-13.67198 c 0.007,-0.58742 -4.42201,15.27361 -24.68504,14.92086 -19.67983,-0.10944 -22.68399,-15.34626 -22.52908,-18.76229 l 0.43757,-48.07861 8.15674,-1.64226 -0.54644,47.48988 c -0.0149,1.29682 1.36845,13.29979 15.27604,13.3426 13.90511,0.0405 23.76622,-8.37359 24.01453,-21.04416 l 0.43105,-37.46902 7.5978,-1.93195 z"
           id="path2298"
           style="fill:#ff6376;fill-opacity:1;fill-rule:evenodd;stroke:none" />
        <path
           d="m 577.45461,655.28678 -5.42715,4.20017 20.19894,26.93328 -22.39092,31.11622 5.63499,4.226 21.04365,-28.8967 20.8779,29.58159 5.32727,-4.20103 -22.37578,-31.62866 18.56963,-25.5775 -5.53193,-4.73429 -16.92109,23.66778 z"
           id="path2300"
           style="fill:#ff6376;fill-opacity:1;fill-rule:evenodd;stroke:none" />
      </g>
      <path
         d="m 105.8125,16.625 c -7.39687,18.135158 -11.858304,29.997682 -20.09375,47.59375 5.04936,5.35232 11.247211,11.585364 21.3125,18.625 C 96.210077,78.390904 88.828713,73.920352 83.3125,69.28125 72.7727,91.274163 56.259864,122.60209 22.75,182.8125 49.087628,167.60733 69.504089,158.23318 88.53125,154.65625 87.714216,151.1422 87.2497,147.34107 87.28125,143.375 l 0.03125,-0.84375 c 0.417917,-16.87382 9.195665,-29.84979 19.59375,-28.96875 10.39809,0.88104 18.48041,15.28242 18.0625,32.15625 -0.0786,3.17512 -0.43674,6.22955 -1.0625,9.0625 18.82058,3.68164 39.01873,13.03179 65,28.03125 -5.123,-9.4318 -9.69572,-17.93388 -14.0625,-26.03125 -6.87839,-5.33121 -14.05289,-12.2698 -28.6875,-19.78125 10.05899,2.61375 17.2611,5.62932 22.875,9 C 124.63297,63.338161 121.03766,52.354109 105.8125,16.625 Z"
         transform="matrix(1.1433333,0,0,1.1433333,22.920168,121.64318)"
         id="path2518"
         style="fill:#ff6376;fill-opacity:1;fill-rule:evenodd;stroke:none" />
      <g
         id="text2634"
         style="font-style:normal;font-weight:normal;font-size:8.44138px;font-family:'DejaVu Sans Mono';fill:#ffffff;fill-opacity:1;stroke:none">
        <path
           d="m 685.46692,263.83624 v -5.32944 h -1.99082 v -0.71307 h 4.7895 v 0.71307 h -1.99906 v 5.32944 h -0.79962"
           id="path3660"
           style="fill:#ffffff;fill-opacity:1" />
        <path
           d="m 689.0982,263.83624 v -6.04251 h 1.20355 l 1.43026,4.2784 c 0.13189,0.39843 0.22806,0.69658 0.28852,0.89442 0.0687,-0.21983 0.17586,-0.5427 0.3215,-0.96862 l 1.44674,-4.2042 h 1.07578 v 6.04251 h -0.77077 v -5.05741 l -1.75587,5.05741 h -0.72131 l -1.74763,-5.14396 v 5.14396 h -0.77077"
           id="path3662"
           style="fill:#ffffff;fill-opacity:1" />
      </g>
      <g
         id="text2638"
         style="font-style:normal;font-weight:normal;font-size:8.2513px;font-family:'DejaVu Sans Mono';fill:#ffffff;fill-opacity:1;stroke:none">
        <path
           d="m 239.84053,313.69965 v -5.20945 h -1.94598 v -0.697 h 4.68164 v 0.697 h -1.95404 v 5.20945 h -0.78162"
           id="path2883"
           style="fill:#ffffff;fill-opacity:1" />
        <path
           d="m 243.39004,313.69965 v -5.90645 h 1.17646 l 1.39805,4.18205 c 0.12892,0.38947 0.22293,0.6809 0.28202,0.87429 0.0671,-0.21488 0.1719,-0.53048 0.31426,-0.94681 l 1.41417,-4.10953 h 1.05155 v 5.90645 h -0.75341 v -4.94353 l -1.71634,4.94353 h -0.70506 l -1.70828,-5.02814 v 5.02814 h -0.75342"
           id="path2885"
           style="fill:#ffffff;fill-opacity:1" />
      </g>
      <g
         aria-label="UwU edition"
         transform="matrix(1.1433333,0,0,1.1433333,21.876817,111.43065)"
         id="text968"
         style="font-size:42.6667px;white-space:pre;shape-inside:url(#rect970);fill:#ff9bc8">
        <path
           d="m 299.16652,158.30215 q 0.544,-0.576 1.408,-0.576 0.864,0 1.376,0.576 0.544,0.544 0.544,1.44 v 10.816 q 0,4.128 -2.368,6.208 -2.368,2.08 -6.112,2.112 -3.712,0.032 -6.08,-2.048 -2.368,-2.112 -2.368,-6.272 v -10.816 q 0,-0.896 0.512,-1.44 0.544,-0.576 1.408,-0.576 0.864,0 1.376,0.576 0.544,0.544 0.544,1.44 v 10.496 q 0,4.448 1.536,6.08 l 0.032,-0.16 q -0.288,-0.512 -0.192,-0.8 0.096,-0.32 0.288,-0.448 0.192,-0.16 0.352,-0.16 1.152,0.576 2.592,0.576 4.64,0 4.64,-5.088 v -10.496 q 0,-0.896 0.512,-1.44 z"
           style="font-size:32px;font-family:'Torus Notched';-inkscape-font-specification:'Torus Notched';text-align:center;text-anchor:middle"
           id="path420" />
        <path
           d="m 326.04652,162.71815 q 0.8,0.288 1.088,0.992 0.32,0.704 0,1.504 l -4.48,12.064 q -0.48,1.344 -1.824,1.344 -1.44,0 -1.824,-1.472 l -2.656,-7.744 -2.688,7.776 q -0.48,1.44 -1.824,1.44 -1.312,0 -1.856,-1.344 l -4.48,-12.064 q -0.288,-0.8 0,-1.504 0.32,-0.704 1.088,-0.992 0.864,-0.288 1.568,0.032 0.704,0.32 0.928,1.152 l 3.232,10.752 0.16,-0.288 q -0.416,-1.728 0.16,-3.552 l 1.952,-6.464 q 0.192,-0.64 0.672,-1.024 0.48,-0.384 1.088,-0.384 0.576,0 1.056,0.384 0.48,0.384 0.64,1.024 l 3.136,10.304 0.128,-0.288 q -0.416,-1.728 0.16,-3.584 l 2.112,-6.88 q 0.224,-0.832 0.928,-1.152 0.704,-0.32 1.536,-0.032 z"
           style="font-size:32px;font-family:'Torus Notched';-inkscape-font-specification:'Torus Notched';text-align:center;text-anchor:middle"
           id="path422" />
        <path
           d="m 343.77449,158.30215 q 0.544,-0.576 1.408,-0.576 0.864,0 1.376,0.576 0.544,0.544 0.544,1.44 v 10.816 q 0,4.128 -2.368,6.208 -2.368,2.08 -6.112,2.112 -3.712,0.032 -6.08,-2.048 -2.368,-2.112 -2.368,-6.272 v -10.816 q 0,-0.896 0.512,-1.44 0.544,-0.576 1.408,-0.576 0.864,0 1.376,0.576 0.544,0.544 0.544,1.44 v 10.496 q 0,4.448 1.536,6.08 l 0.032,-0.16 q -0.288,-0.512 -0.192,-0.8 0.096,-0.32 0.288,-0.448 0.192,-0.16 0.352,-0.16 1.152,0.576 2.592,0.576 4.64,0 4.64,-5.088 v -10.496 q 0,-0.896 0.512,-1.44 z"
           style="font-size:32px;font-family:'Torus Notched';-inkscape-font-specification:'Torus Notched';text-align:center;text-anchor:middle"
           id="path424" />
        <path
           d="m 374.3985,169.43815 q 0,1.216 -0.704,1.984 -0.672,0.768 -1.856,0.768 h -9.856 l 0.032,0.16 q 0.8,0 1.376,0.992 1.184,2.144 3.872,2.144 1.472,0 3.392,-0.864 1.696,-0.704 2.464,0.672 0.8,1.44 -0.768,2.4 -2.08,1.184 -4.992,1.184 -3.84,0 -6.144,-2.336 -2.304,-2.336 -2.304,-5.888 0,-3.648 2.304,-5.952 2.304,-2.336 5.76,-2.336 3.2,0 5.312,1.984 2.112,1.952 2.112,5.088 z m -11.52,-0.384 h 7.936 q -0.032,-1.344 -1.248,-2.368 -1.184,-1.024 -3.136,-1.024 -1.44,0 -2.944,0.576 -1.504,0.544 -2.144,1.664 l 0.16,0.096 q 0.48,-0.672 1.216,-0.96 0.768,-0.32 1.44,-0.256 -0.96,0.96 -1.28,2.272 z"
           style="font-size:32px;font-family:'Torus Notched';-inkscape-font-specification:'Torus Notched';text-align:center;text-anchor:middle"
           id="path426" />
        <path
           d="m 391.3265,156.12615 q 0.864,0 1.376,0.576 0.512,0.544 0.512,1.408 v 13.216 q 0,3.232 -2.336,5.408 -2.304,2.144 -5.76,2.144 -3.616,0 -5.984,-2.272 -2.336,-2.304 -2.336,-5.952 0,-3.68 2.368,-5.984 2.4,-2.304 5.696,-2.304 2.048,0 3.328,1.28 1.088,1.152 1.088,2.4 l 0.16,0.224 v -8.16 q 0,-0.864 0.512,-1.408 0.544,-0.576 1.376,-0.576 z m -1.856,14.912 v -0.608 q 0,-2.112 -1.248,-3.36 -1.248,-1.28 -3.712,-1.28 -1.6,0 -3.104,0.576 -1.504,0.576 -2.144,1.728 l 0.16,0.096 q 0.448,-0.672 1.184,-0.96 0.768,-0.32 1.472,-0.224 -1.504,1.312 -1.504,3.552 0,1.984 1.248,3.392 1.28,1.408 3.424,1.408 1.888,0 3.04,-1.216 1.184,-1.216 1.184,-3.104 z"
           style="font-size:32px;font-family:'Torus Notched';-inkscape-font-specification:'Torus Notched';text-align:center;text-anchor:middle"
           id="path428" />
        <path
           d="m 398.91053,159.99815 q -0.992,0 -1.632,-0.64 -0.608,-0.64 -0.608,-1.6 0,-0.96 0.608,-1.6 0.64,-0.64 1.632,-0.64 0.96,0 1.568,0.64 0.64,0.64 0.64,1.6 0,0.96 -0.64,1.6 -0.608,0.64 -1.568,0.64 z m 0,2.624 q 0.832,0 1.344,0.544 0.512,0.512 0.512,1.28 v 0.096 q 0,0.672 -0.608,1.152 -0.608,0.48 -1.312,0.48 v 0.16 h 1.92 v 10.304 q 0,0.864 -0.512,1.44 -0.512,0.544 -1.344,0.544 -0.864,0 -1.376,-0.544 -0.512,-0.576 -0.512,-1.44 v -12.064 q 0,-0.864 0.512,-1.408 0.512,-0.544 1.376,-0.544 z"
           style="font-size:32px;font-family:'Torus Notched';-inkscape-font-specification:'Torus Notched';text-align:center;text-anchor:middle"
           id="path430" />
        <path
           d="m 413.34253,175.10215 q 0.832,0 1.312,0.48 0.512,0.448 0.512,1.28 0,0.832 -0.512,1.312 -0.48,0.448 -1.312,0.448 h -0.64 q -6.016,0 -6.016,-6.4 v -6.144 h -0.96 q -0.864,0 -1.408,-0.448 -0.512,-0.48 -0.512,-1.28 0,-0.8 0.512,-1.248 0.544,-0.48 1.408,-0.48 h 0.96 v -2.976 q 0,-0.864 0.512,-1.408 0.512,-0.576 1.376,-0.576 0.832,0 1.344,0.576 0.512,0.544 0.512,1.408 v 2.976 h 2.784 q 0.864,0 1.408,0.48 0.544,0.448 0.544,1.248 0,0.8 -0.544,1.28 -0.544,0.448 -1.408,0.448 h -4.736 v 0.16 q 0.704,0 1.312,0.544 0.64,0.512 0.64,1.344 v 3.552 q 0,1.792 0.512,2.624 0.544,0.8 1.856,0.8 z"
           style="font-size:32px;font-family:'Torus Notched';-inkscape-font-specification:'Torus Notched';text-align:center;text-anchor:middle"
           id="path432" />
        <path
           d="m 420.47852,159.99815 q -0.992,0 -1.632,-0.64 -0.608,-0.64 -0.608,-1.6 0,-0.96 0.608,-1.6 0.64,-0.64 1.632,-0.64 0.96,0 1.568,0.64 0.64,0.64 0.64,1.6 0,0.96 -0.64,1.6 -0.608,0.64 -1.568,0.64 z m 0,2.624 q 0.832,0 1.344,0.544 0.512,0.512 0.512,1.28 v 0.096 q 0,0.672 -0.608,1.152 -0.608,0.48 -1.312,0.48 v 0.16 h 1.92 v 10.304 q 0,0.864 -0.512,1.44 -0.512,0.544 -1.344,0.544 -0.864,0 -1.376,-0.544 -0.512,-0.576 -0.512,-1.44 v -12.064 q 0,-0.864 0.512,-1.408 0.512,-0.544 1.376,-0.544 z"
           style="font-size:32px;font-family:'Torus Notched';-inkscape-font-specification:'Torus Notched';text-align:center;text-anchor:middle"
           id="path434" />
        <path
           d="m 439.87052,176.54215 q -2.336,2.336 -5.984,2.336 -3.648,0 -6.016,-2.336 -2.336,-2.368 -2.336,-5.92 0,-3.584 2.336,-5.92 2.368,-2.336 6.016,-2.336 3.648,0 5.984,2.336 2.368,2.336 2.368,5.92 0,3.552 -2.368,5.92 z m -5.984,-1.184 q 2.08,0 3.328,-1.344 1.248,-1.344 1.248,-3.392 0,-2.112 -1.376,-3.424 -1.344,-1.344 -3.84,-1.344 -1.632,0 -3.136,0.544 -1.472,0.544 -2.112,1.696 l 0.16,0.096 q 0.448,-0.672 1.184,-0.96 0.768,-0.32 1.472,-0.224 -1.504,1.312 -1.504,3.616 0,2.048 1.248,3.392 1.28,1.344 3.328,1.344 z"
           style="font-size:32px;font-family:'Torus Notched';-inkscape-font-specification:'Torus Notched';text-align:center;text-anchor:middle"
           id="path436" />
        <path
           d="m 453.69453,162.36615 q 2.72,0 4.512,1.6 1.792,1.6 1.792,4.928 v 7.744 q 0,0.864 -0.512,1.44 -0.512,0.544 -1.376,0.544 -0.864,0 -1.376,-0.544 -0.512,-0.576 -0.512,-1.44 v -7.328 q 0,-2.048 -0.864,-2.752 -0.864,-0.704 -2.4,-0.704 -2.208,0 -3.84,1.152 -1.6,1.152 -1.952,3.424 h 0.16 q 0.416,-1.856 1.792,-2.304 -0.096,0.256 -0.096,0.512 v 8 q 0,0.864 -0.512,1.44 -0.512,0.544 -1.376,0.544 -0.864,0 -1.376,-0.544 -0.512,-0.576 -0.512,-1.44 v -12.032 q 0,-0.864 0.512,-1.408 0.512,-0.576 1.376,-0.576 0.8,0 1.28,0.48 0.48,0.48 0.544,1.28 v 0.032 h 0.192 q 1.856,-2.048 4.544,-2.048 z"
           style="font-size:32px;font-family:'Torus Notched';-inkscape-font-specification:'Torus Notched';text-align:center;text-anchor:middle"
           id="path438" />
      </g>
    </g>
  </g>
</svg>
